<?xml version="1.0" encoding="UTF-8" standalone="no"?>
<!-- Created with Inkscape (http://www.inkscape.org/) -->

<svg
   version="1.1"
   id="svg1"
   width="793.70135"
   height="226.772"
   viewBox="0 0 793.70135 226.772"
   sodipodi:docname="BO_Nahwärme-Logo_Vektor.svg"
   inkscape:version="1.3.2 (091e20e, 2023-11-25, custom)"
   xmlns:inkscape="http://www.inkscape.org/namespaces/inkscape"
   xmlns:sodipodi="http://sodipodi.sourceforge.net/DTD/sodipodi-0.dtd"
   xmlns="http://www.w3.org/2000/svg"
   xmlns:svg="http://www.w3.org/2000/svg">
  <defs
     id="defs1" />
  <sodipodi:namedview
     id="namedview1"
     pagecolor="#ffffff"
     bordercolor="#000000"
     borderopacity="0.25"
     inkscape:showpageshadow="2"
     inkscape:pageopacity="0.0"
     inkscape:pagecheckerboard="0"
     inkscape:deskcolor="#d1d1d1"
     inkscape:zoom="3.4698189"
     inkscape:cx="396.85068"
     inkscape:cy="113.40649"
     inkscape:window-width="3840"
     inkscape:window-height="2054"
     inkscape:window-x="-11"
     inkscape:window-y="-11"
     inkscape:window-maximized="1"
     inkscape:current-layer="g1">
    <inkscape:page
       x="0"
       y="0"
       inkscape:label="1"
       id="page1"
       width="793.70135"
       height="226.772"
       margin="0"
       bleed="0"
       inkscape:export-filename="BO_Nahwärme-Logo_Vektor.png"
       inkscape:export-xdpi="500"
       inkscape:export-ydpi="500" />
  </sodipodi:namedview>
  <g
     id="g1"
     inkscape:groupmode="layer"
     inkscape:label="1">
    <g
       id="group-MC1">
      <path
         id="path2"
         d="m 0,0 c 0,38.93 -31.561,70.488 -70.491,70.488 -38.931,0 -70.489,-31.558 -70.489,-70.488 0,-38.934 31.558,-70.492 70.489,-70.492 C -31.561,-70.492 0,-38.934 0,0 m -3.44,0 c 0,-37.031 -30.019,-67.055 -67.051,-67.055 -37.031,0 -67.052,30.024 -67.052,67.055 0,37.031 30.021,67.051 67.052,67.051 37.032,0 67.051,-30.02 67.051,-67.051"
         style="fill:#4b4b50;fill-opacity:1;fill-rule:nonzero;stroke:none"
         transform="matrix(1.3333333,0,0,-1.3333333,206.872,113.38667)" />
      <path
         id="path3"
         d="m 0,0 c 33.233,0 60.174,26.941 60.174,60.176 0,33.23 -26.941,60.172 -60.174,60.172 -33.233,0 -60.174,-26.942 -60.174,-60.172 C -60.174,26.941 -33.233,0 0,0"
         style="fill:#73c82c;fill-opacity:1;fill-rule:nonzero;stroke:none"
         transform="matrix(1.3333333,0,0,-1.3333333,112.884,193.62133)" />
      <path
         id="path4"
         d="m 0,0 c 0,0 1.692,10.109 -7.666,10.109 h -1.916 c 0,0 -9.357,0 -11.049,-10.109 l -6.207,-37.092 c 0,0 -1.691,-10.108 7.667,-10.108 h 1.915 c 0,0 6.519,0.023 9.655,5.919 H 4.554 l 1.402,8.38 H -5.506 Z m -27.803,0 c 0,0 1.692,10.109 -7.665,10.109 h -1.916 c 0,0 -9.358,0 -11.05,-10.109 l -6.207,-37.092 c 0,0 -1.691,-10.108 7.667,-10.108 h 1.916 c 0,0 9.357,0 11.048,10.108 z m -27.802,0 c 0,0 1.692,10.109 -7.666,10.109 h -1.916 c 0,0 -6.511,-0.023 -9.649,-5.909 h -12.159 l -1.403,-8.379 h 11.462 l -5.508,-32.913 c 0,0 -1.691,-10.108 7.667,-10.108 h 1.916 c 0,0 9.358,0 11.049,10.108 L -55.605,0"
         style="fill:#ffffff;fill-opacity:1;fill-rule:nonzero;stroke:none"
         transform="matrix(1.3333333,0,0,-1.3333333,167.84667,88.658667)" />
      <path
         id="path5"
         d="M 0,0 V 7.19 H -6.605 V 4.626 h 3.299 V 0.932 c 0,-1.006 -0.141,-1.699 -2.408,-1.699 -5.162,0 -5.203,2.985 -5.203,7.042 0,4.057 0.041,7.042 5.203,7.042 1.583,0 3.323,-0.083 4.947,-0.322 l 0.289,2.565 c -1.88,0.371 -3.867,0.519 -5.987,0.519 -6.308,0 -7.882,-2.902 -7.882,-9.804 0,-6.819 1.574,-9.804 7.882,-9.804 C -2.738,-3.529 0,-3.315 0,0 m -0.229,45.564 c 0.099,1.364 0.174,2.778 0.174,4.143 0,13.818 -3.126,22.477 -19.724,22.477 -15.009,0 -20.194,-6.649 -20.194,-22.676 0,-13.099 4.019,-22.7 19.351,-22.7 8.708,0 15.481,1.117 19.872,1.886 l -1.216,11.139 c -4.54,-0.546 -9.998,-1.191 -16.101,-1.191 -5.284,0 -7.293,0.968 -7.467,4.342 l 6.153,0.372 c 6.003,0.372 14.19,1.24 19.152,2.208 m -14.315,9.353 c 0,-0.323 -0.025,-0.745 -0.074,-1.067 -1.588,-0.223 -4.565,-0.471 -6.674,-0.595 l -4.664,-0.249 c 0,4.491 0.695,7.766 6.177,7.766 3.821,0 5.235,-2.035 5.235,-5.855 M -40.453,3.298 c 0.033,0.371 0.041,0.734 0.041,1.089 0,4.378 -1.13,7.165 -6.415,7.165 -4.89,0 -6.539,-2.21 -6.539,-7.536 0,-4.354 1.295,-7.545 6.217,-7.545 2.829,0 4.75,0.28 6.341,0.536 l -0.264,2.333 c -1.509,-0.189 -3.306,-0.379 -5.269,-0.379 -2.275,0 -3.751,0.66 -3.916,3.488 l 2.589,0.115 c 2.028,0.091 5.533,0.437 7.215,0.734 m -3.109,2.441 c 0,-0.19 -0.008,-0.495 -0.033,-0.684 -1.014,-0.14 -2.713,-0.281 -3.793,-0.33 l -2.952,-0.14 c 0,2.655 0.421,4.609 3.513,4.609 2.441,0 3.265,-1.22 3.265,-3.455 m -16.384,-9.07 h 3.133 v 9.416 c 0,2.969 -0.676,5.467 -5.269,5.467 -1.665,0 -3.364,-0.371 -4.733,-0.923 -0.791,0.577 -1.954,0.923 -3.644,0.923 -2.284,0 -4.552,-0.519 -6.11,-1.286 -0.083,-0.891 -0.124,-1.732 -0.124,-2.696 V -3.331 h 3.125 v 9.944 c 0,0.66 0.025,1.377 0.091,1.971 0.544,0.28 1.509,0.486 2.251,0.486 2.375,0 2.902,-1.121 2.902,-3.323 v -9.078 h 3.134 v 9.416 c 0,0.833 -0.058,1.625 -0.239,2.342 0.824,0.454 1.904,0.643 2.58,0.643 2.375,0 2.903,-1.121 2.903,-3.323 z m -19.583,12.335 0.247,2.491 c -0.429,0.041 -0.882,0.057 -1.369,0.057 -1.921,0 -4.131,-0.363 -5.771,-1.286 -0.083,-0.891 -0.124,-1.732 -0.124,-2.696 V -3.331 h 3.125 v 9.928 c 0,0.659 0.025,1.377 0.091,1.97 0.635,0.33 1.739,0.495 2.679,0.495 0.421,0 0.792,-0.016 1.122,-0.058 M -90.521,-2.243 c 0.083,0.891 0.124,1.732 0.124,2.697 v 6.472 c 0,3.744 -2.663,4.626 -5.896,4.626 -2.152,0 -4.073,-0.272 -5.656,-0.536 l 0.255,-2.292 c 1.501,0.19 3.348,0.371 5.104,0.371 2.235,0 3.126,-1.022 3.126,-3.059 -1.815,-0.074 -3.587,-0.14 -5.203,-0.388 -2.837,-0.428 -3.95,-2.036 -3.95,-4.601 0,-3.018 1.558,-4.576 5.533,-4.576 2.737,0 4.922,0.363 6.563,1.286 m -2.943,3.529 c 0,-0.659 -0.025,-1.377 -0.091,-1.97 -0.924,-0.429 -2.111,-0.503 -3.068,-0.503 -1.88,0 -2.902,0.445 -2.902,2.284 0,1.715 0.544,2.185 2.07,2.539 1.195,0.281 2.696,0.306 3.991,0.355 z m 1.69,13.969 c 0,0.931 -0.693,1.649 -1.625,1.649 -0.931,0 -1.657,-0.718 -1.657,-1.649 0,-0.932 0.726,-1.641 1.657,-1.641 0.932,0 1.625,0.709 1.625,1.641 m -5.451,0 c 0,0.931 -0.684,1.649 -1.607,1.649 -0.932,0 -1.682,-0.718 -1.682,-1.649 0,-0.932 0.75,-1.641 1.682,-1.641 0.923,0 1.607,0.709 1.607,1.641 m -10.974,-16.731 3.298,12.83 h -3.084 l -2.622,-11.651 -2.507,8.567 c -0.387,1.312 -1.072,1.922 -2.152,1.922 -1.08,0 -1.764,-0.619 -2.152,-1.922 l -2.548,-8.6 -2.597,11.684 h -3.2 l 3.274,-12.813 c 0.363,-1.41 1.154,-2.07 2.334,-2.07 1.179,0 1.937,0.668 2.366,2.061 l 2.457,8.007 2.466,-8.015 c 0.428,-1.393 1.187,-2.053 2.358,-2.053 1.163,0 1.946,0.651 2.309,2.053 m -10.628,61.553 1.166,11.784 c -1.638,0.224 -3.374,0.323 -5.26,0.323 -6.425,0 -13.67,-1.414 -18.706,-4.59 -0.273,-3.151 -0.372,-5.805 -0.372,-9.03 v -31.16 h 14.389 v 25.801 c 0,1.985 0.075,4.143 0.248,5.929 1.414,0.695 3.722,1.117 5.756,1.117 0.794,0 1.96,-0.075 2.779,-0.174 m -25.522,-62.32 c 0.083,0.891 0.124,1.732 0.124,2.697 v 6.472 c 0,3.744 -2.663,4.626 -5.896,4.626 -2.152,0 -4.073,-0.272 -5.656,-0.536 l 0.255,-2.292 c 1.501,0.19 3.348,0.371 5.104,0.371 2.235,0 3.126,-1.022 3.126,-3.059 -1.815,-0.074 -3.587,-0.14 -5.203,-0.388 -2.837,-0.428 -3.95,-2.036 -3.95,-4.601 0,-3.018 1.558,-4.576 5.533,-4.576 2.737,0 4.922,0.363 6.563,1.286 m -2.943,3.529 c 0,-0.659 -0.025,-1.377 -0.091,-1.97 -0.924,-0.429 -2.111,-0.503 -3.068,-0.503 -1.88,0 -2.902,0.445 -2.902,2.284 0,1.715 0.544,2.185 2.07,2.539 1.195,0.281 2.696,0.306 3.991,0.355 z m -4.3,30.112 c 0.273,3.151 0.372,5.805 0.372,9.03 v 16.87 c 0,11.909 -8.584,14.886 -18.731,14.886 -6.549,0 -13.62,-1.067 -18.011,-1.861 l 1.191,-11.04 c 4.317,0.546 10.693,1.216 16.126,1.216 3.597,0 5.284,-0.596 5.284,-3.399 -3.548,-0.149 -6.773,-0.273 -10.841,-0.968 -9.403,-1.612 -13,-6.45 -13,-14.538 0,-9.973 5.135,-14.786 17.887,-14.786 7.418,0 14.215,1.191 19.723,4.59 m -13.769,13.124 c 0,-1.985 -0.074,-4.143 -0.273,-5.93 -1.563,-0.421 -3.101,-0.496 -4.639,-0.496 -2.903,0 -4.689,0.918 -4.689,3.647 0,3.523 1.092,4.416 3.424,5.012 1.86,0.471 4.143,0.645 6.177,0.818 z m -26.469,-32.97 c -1.921,0 -4.131,-0.363 -5.772,-1.286 -0.082,-0.891 -0.124,-1.732 -0.124,-2.696 V -8.74 h 3.125 v 5.615 c 0.998,-0.247 2.186,-0.404 3.208,-0.404 4.477,0 6.415,1.872 6.415,7.536 0,5.756 -2.028,7.545 -6.852,7.545 m 3.694,-7.545 c 0,-2.96 -0.074,-5.112 -3.991,-5.112 -0.758,0 -1.748,0.165 -2.474,0.412 v 7.372 c 0,0.66 0.025,1.377 0.091,1.971 0.635,0.33 1.74,0.495 2.68,0.495 3.504,0 3.694,-2.433 3.694,-5.138 m -14.571,32.576 8.956,35.005 h -14.34 l -4.614,-27.637 h -0.05 l -3.2,14.265 c -1.563,6.972 -4.788,10.147 -8.981,10.147 -4.267,0 -7.542,-2.952 -9.03,-10.147 l -3.002,-14.414 h -0.05 l -4.689,27.786 h -14.761 l 9.055,-34.931 c 1.836,-7.095 4.64,-9.849 9.353,-9.849 4.515,0 8.237,3.076 9.874,9.75 l 2.977,12.057 3.399,-12.082 c 1.861,-6.649 5.334,-9.725 9.8,-9.725 4.589,0 7.591,3.076 9.303,9.775 M -255.03,4.016 c 0,5.664 -1.938,7.536 -6.415,7.536 -1.022,0 -2.21,-0.156 -3.207,-0.404 v 5.879 h -3.125 V 0.454 c 0,-0.965 0.041,-1.806 0.123,-2.697 1.641,-0.923 3.851,-1.286 5.772,-1.286 4.824,0 6.852,1.789 6.852,7.545 m -3.158,0 c 0,-2.705 -0.19,-5.137 -3.694,-5.137 -0.94,0 -2.045,0.165 -2.68,0.494 -0.066,0.594 -0.09,1.311 -0.09,1.971 v 7.372 c 0.725,0.247 1.715,0.412 2.473,0.412 3.917,0 3.991,-2.152 3.991,-5.112 m -2.895,50.529 c 0.347,2.133 0.595,4.217 0.595,6.152 0,6.599 -2.952,11.487 -15.555,11.487 -2.679,0 -5.086,-0.323 -7.343,-0.844 l 2.754,17.317 h -14.29 l -9.701,-61.253 h 14.29 l 5.086,32.102 c 1.414,0.397 2.803,0.571 4.366,0.571 4.367,0 5.607,-1.166 5.607,-3.87 0,-0.769 -0.099,-1.638 -0.248,-2.655 l -4.143,-26.148 h 14.29 z m -17.143,51.678 c 0.164,1.021 0.242,1.92 0.242,2.716 0,3.918 -2.006,5.198 -6.262,5.198 -2.11,0 -4.584,-0.45 -6.461,-1.514 -0.26,-1.037 -0.441,-1.946 -0.614,-3.027 l -2.647,-16.745 h 4.351 l 0.899,5.7 c 0.744,-0.147 1.626,-0.234 2.396,-0.234 4.688,0 7.145,1.903 8.096,7.906 m -4.152,1.972 c 0,-0.614 -0.103,-1.297 -0.207,-1.972 -0.389,-2.474 -0.805,-4.359 -3.953,-4.359 -0.528,0 -1.159,0.095 -1.617,0.233 l 0.968,6.159 c 0.113,0.692 0.26,1.444 0.424,2.067 0.51,0.19 1.28,0.294 1.964,0.294 1.937,0 2.421,-1.055 2.421,-2.422 m -12.207,0.407 c 0.242,1.548 0.381,2.906 0.381,4.082 0,4.351 -1.843,6.202 -6.73,6.202 -6.201,0 -8.459,-2.984 -9.609,-10.284 -0.251,-1.557 -0.381,-2.907 -0.381,-4.083 0,-4.351 1.851,-6.202 6.73,-6.202 6.201,0 8.45,2.984 9.609,10.285 m -4.273,3.572 c 0,-0.986 -0.19,-2.206 -0.406,-3.572 -0.606,-3.798 -1.09,-6.358 -4.342,-6.358 -2.076,0 -2.664,1.047 -2.664,2.794 0,0.986 0.19,2.197 0.406,3.564 0.597,3.788 1.09,6.374 4.342,6.374 2.076,0 2.664,-1.055 2.664,-2.802 m -9.338,-51.576 c 0,9.155 -7.318,11.586 -16.274,11.586 -6.426,0 -13.521,-1.067 -17.962,-1.861 l -0.571,-11.04 c 4.317,0.546 10.668,1.216 15.977,1.216 3.126,0 4.739,-0.472 4.739,-2.556 0,-0.248 -0.025,-0.545 -0.075,-0.843 -3.498,-0.149 -6.673,-0.273 -10.792,-0.968 -9.477,-1.612 -13.769,-6.45 -15.034,-14.538 -0.198,-1.315 -0.322,-2.53 -0.322,-3.671 0,-7.468 4.664,-11.115 15.505,-11.115 7.269,0 14.117,1.191 20.071,4.59 0.769,3.151 1.265,5.805 1.786,9.03 l 2.679,16.87 c 0.199,1.191 0.273,2.283 0.273,3.3 m -15.679,-13.025 -0.496,-3.051 c -0.323,-1.985 -0.72,-4.143 -1.216,-5.93 -1.563,-0.421 -3.101,-0.496 -4.614,-0.496 -2.531,0 -4.069,0.72 -4.069,2.804 0,0.273 0.025,0.545 0.074,0.843 0.546,3.523 1.762,4.416 4.144,5.012 1.91,0.471 4.167,0.645 6.177,0.818 m 7.785,60.683 c 0.113,0.735 0.199,1.427 0.199,2.058 0,2.318 -1.09,3.823 -5.466,3.823 -2.474,0 -4.948,-0.441 -6.937,-1.514 -0.26,-1.037 -0.441,-1.946 -0.614,-3.027 l -1.748,-11.071 h 4.308 l 1.531,9.661 c 0.112,0.692 0.259,1.445 0.424,2.068 0.493,0.19 1.245,0.302 1.911,0.302 1.626,-0.008 2.119,-0.467 2.119,-1.557 0,-0.311 -0.043,-0.666 -0.103,-1.081 l -1.488,-9.393 h 4.325 z m -15.771,-1.843 c 0.156,1.012 0.251,1.938 0.251,2.777 0,3.096 -1.315,4.947 -5.709,4.947 -5.094,0 -7.213,-2.318 -8.096,-7.905 -0.138,-0.9 -0.224,-1.756 -0.224,-2.543 0,-3.218 1.357,-5.372 5.501,-5.372 2.958,0 5.207,0.355 6.798,0.623 l 0.164,3.373 c -1.574,-0.199 -3.468,-0.415 -5.527,-0.415 -1.833,0 -2.75,0.398 -2.75,1.86 0,0.13 0.008,0.268 0.026,0.424 l 2.327,0.129 c 2.084,0.113 5.215,0.441 6.971,0.77 0.112,0.441 0.199,0.9 0.268,1.332 m -3.996,2.465 c 0,-0.242 -0.026,-0.501 -0.069,-0.787 -0.026,-0.147 -0.069,-0.354 -0.113,-0.501 -0.744,-0.096 -2.032,-0.208 -2.897,-0.251 l -2.128,-0.113 c 0.32,2.007 0.856,3.469 3.2,3.469 1.436,0 2.007,-0.632 2.007,-1.817 m -11.749,-2.646 c 0.165,1.02 0.242,1.92 0.242,2.716 0,3.874 -1.928,5.189 -5.821,5.189 -0.769,0 -1.686,-0.086 -2.482,-0.233 l 0.951,5.976 h -4.35 l -2.699,-17.022 c -0.173,-1.081 -0.277,-1.989 -0.346,-3.027 1.54,-1.064 3.866,-1.514 5.986,-1.514 5.111,0 7.559,1.843 8.519,7.915 m -4.143,2.006 c 0,-0.597 -0.104,-1.271 -0.216,-2.006 -0.346,-2.18 -0.787,-4.394 -3.598,-4.394 -0.684,0 -1.427,0.103 -1.869,0.294 0.026,0.623 0.122,1.375 0.234,2.067 l 0.969,6.158 c 0.51,0.139 1.176,0.234 1.695,0.234 2.223,0 2.785,-0.934 2.785,-2.353 m -11.697,-2.006 c 0.165,1.038 0.251,1.972 0.251,2.785 0,3.641 -1.712,5.12 -5.812,5.12 -5,0 -7.153,-2.18 -8.062,-7.905 -0.164,-1.056 -0.25,-1.99 -0.25,-2.812 0,-3.658 1.721,-5.103 5.803,-5.103 5.017,0 7.162,2.206 8.07,7.915 m -4.1,2.292 c 0,-0.597 -0.086,-1.35 -0.233,-2.292 -0.536,-3.382 -1.185,-4.308 -3.192,-4.308 -1.436,0 -1.998,0.441 -1.998,1.964 0,0.596 0.087,1.366 0.242,2.344 0.545,3.425 1.185,4.307 3.183,4.307 1.445,0 1.998,-0.484 1.998,-2.015 m -2.093,-59.388 -8.311,26.571 c -2.357,7.542 -5.508,10.097 -10.395,10.097 -5.607,0 -9.477,-3.597 -10.817,-12.008 l -7.343,-46.392 h 13.694 l 5.731,36.196 8.262,-26.67 c 2.48,-7.988 5.036,-10.122 10.37,-10.122 5.755,0 9.526,3.622 10.866,12.057 l 7.343,46.343 h -13.694 z m -8.79,64.119 c 0.06,0.398 0.095,0.778 0.095,1.124 0,3.893 -3.772,4.507 -7.205,4.507 -2.448,0 -5.069,-0.286 -6.66,-0.606 l -3.071,-19.401 c 1.886,-0.354 4.178,-0.562 6.781,-0.562 4.187,0 8.105,0.9 8.875,5.744 0.06,0.389 0.095,0.752 0.095,1.089 0,2.024 -1.064,3.149 -2.526,3.685 2.05,0.753 3.321,2.586 3.616,4.42 m -10.968,-6.176 h 2.128 c 1.825,0 3.209,-0.285 3.209,-1.955 0,-0.181 -0.018,-0.38 -0.052,-0.596 -0.329,-2.085 -1.834,-2.431 -3.858,-2.431 -0.83,0 -1.557,0.052 -2.197,0.147 z m 6.461,6.366 c 0,-0.164 -0.008,-0.346 -0.043,-0.545 -0.32,-2.006 -1.808,-2.344 -3.745,-2.344 h -2.111 l 0.71,4.455 c 0.614,0.078 1.366,0.13 1.997,0.13 1.921,0 3.192,-0.182 3.192,-1.696 m 87.758,-97.366 c -2.226,0 -4.543,-0.214 -6.135,-0.503 V -3.026 c 1.897,-0.33 4.024,-0.503 6.465,-0.503 4.024,0 7.594,0.824 7.594,5.203 0,2.894 -1.36,4.23 -3.133,4.824 1.905,0.717 2.836,2.44 2.836,4.502 0,4.411 -4.007,5.079 -7.627,5.079 M -297.99,5.31 h 2.944 c 2.54,0 4.461,-0.437 4.461,-3.174 0,-2.664 -1.781,-3.051 -4.37,-3.051 -1.163,0 -2.103,0.066 -3.035,0.189 z m 0.008,7.999 c 0.949,0.123 1.996,0.189 2.804,0.189 2.655,0 4.37,-0.28 4.37,-2.845 0,-2.564 -1.756,-2.976 -4.238,-2.976 h -2.936 z m 13.713,-9.293 c 0,-5.5 1.731,-7.545 6.539,-7.545 4.807,0 6.539,2.136 6.539,7.545 0,5.401 -1.732,7.536 -6.539,7.536 -4.808,0 -6.539,-2.045 -6.539,-7.536 m 3.158,0 c 0,4.048 0.726,5.046 3.381,5.046 2.655,0 3.397,-1.163 3.397,-5.046 0,-3.892 -0.742,-5.055 -3.397,-5.055 -2.655,0 -3.381,0.998 -3.381,5.055 m 28.728,0 c 0,-4.354 1.294,-7.545 6.217,-7.545 2.828,0 4.75,0.28 6.341,0.536 l -0.264,2.333 c -1.509,-0.189 -3.306,-0.379 -5.269,-0.379 -2.276,0 -3.752,0.66 -3.916,3.488 l 2.589,0.115 c 2.028,0.091 5.533,0.437 7.215,0.734 0.033,0.371 0.041,0.734 0.041,1.089 0,4.378 -1.13,7.165 -6.415,7.165 -4.89,0 -6.539,-2.21 -6.539,-7.536 m 3.026,0.569 c 0,2.655 0.421,4.609 3.513,4.609 2.44,0 3.265,-1.22 3.265,-3.455 0,-0.19 -0.008,-0.495 -0.033,-0.684 -1.014,-0.14 -2.713,-0.281 -3.793,-0.33 z m 13.449,5.681 c -0.083,-0.891 -0.124,-1.732 -0.124,-2.696 V -3.331 h 3.125 v 9.944 c 0,0.66 0.025,1.377 0.091,1.971 0.635,0.33 1.74,0.495 2.68,0.495 3.009,0 3.422,-0.99 3.422,-3.332 v -9.078 h 3.133 v 9.416 c 0,3.051 -0.528,5.467 -5.698,5.467 -2.779,0 -4.964,-0.47 -6.629,-1.286 m 19.324,-3.991 c 0,-6.959 1.691,-9.804 7.611,-9.804 5.921,0 7.603,2.845 7.603,9.804 0,6.959 -1.682,9.804 -7.603,9.804 -5.92,0 -7.611,-2.845 -7.611,-9.804 m 3.414,0 c 0,4.197 0.107,7.091 4.197,7.091 4.09,0 4.205,-2.894 4.205,-7.091 0,-4.197 -0.115,-7.083 -4.205,-7.083 -4.09,0 -4.197,2.886 -4.197,7.083 m 38.444,7.372 V -3.331 h 2.993 v 15.089 l 6.934,-13.127 c 0.841,-1.591 1.716,-2.16 2.969,-2.16 1.303,0 2.061,0.734 2.061,2.441 v 16.969 h -2.993 V 0.841 l -6.943,13.094 c -0.832,1.575 -1.773,2.144 -2.96,2.144 -1.278,0 -2.061,-0.726 -2.061,-2.432 m 37.452,3.38 h -3.133 V -3.331 h 3.133 V 8.468 c 0.808,0.363 1.831,0.578 2.771,0.578 3.026,0 3.455,-0.99 3.455,-3.332 v -9.045 h 3.133 v 9.416 c 0,3.051 -0.544,5.467 -5.73,5.467 -1.345,0 -2.557,-0.214 -3.629,-0.552 z M -30.336,4.016 c 0,-4.354 1.295,-7.545 6.217,-7.545 2.829,0 4.75,0.28 6.341,0.536 l -0.263,2.333 c -1.509,-0.189 -3.307,-0.379 -5.269,-0.379 -2.276,0 -3.752,0.66 -3.917,3.488 l 2.589,0.115 c 2.028,0.091 5.533,0.437 7.215,0.734 0.033,0.371 0.041,0.734 0.041,1.089 0,4.378 -1.129,7.165 -6.415,7.165 -4.89,0 -6.539,-2.21 -6.539,-7.536 m 3.026,0.569 c 0,2.655 0.421,4.609 3.513,4.609 2.441,0 3.265,-1.22 3.265,-3.455 0,-0.19 -0.008,-0.495 -0.033,-0.684 -1.014,-0.14 -2.713,-0.281 -3.793,-0.33 l -2.952,-0.14"
         style="fill:#4b4b50;fill-opacity:1;fill-rule:nonzero;stroke:none"
         transform="matrix(1.3333333,0,0,-1.3333333,774.80267,189.16133)" />
      <path
         id="path6"
         d="m 0,0 c 0,0 1.421,8.493 -6.458,8.493 h -1.613 c 0,0 -7.879,0 -9.3,-8.493 l -5.215,-31.163 c 0,0 -1.421,-8.493 6.458,-8.493 h 1.613 c 0,0 4.078,0.018 6.896,3.188 h 9.022 l 1.209,7.223 h -7.506 z m -23.433,0 c 0,0 1.421,8.493 -6.458,8.493 h -1.613 c 0,0 -7.879,0 -9.3,-8.493 l -5.215,-31.163 c 0,0 -1.421,-8.493 6.458,-8.493 h 1.613 c 0,0 7.879,0 9.3,8.493 z m -23.248,0 c 0,0 1.422,8.493 -6.457,8.493 h -1.614 c 0,0 -5.189,-10e-4 -7.904,-4.542 h -8.204 l -1.208,-7.222 h 7.469 l -4.668,-27.892 c 0,0 -1.421,-8.493 6.458,-8.493 h 1.613 c 0,0 7.879,0 9.301,8.493 z m -37.716,38.967 c -1.776,0.546 -12.985,1.566 -21.586,-0.512 -5.781,-1.396 -10.506,-3.586 -14.32,-8.881 -3.813,-5.295 -2.409,-8.694 -2.268,-10.757 1.967,2.657 3.857,5.023 6.309,7.024 7.143,5.826 18.888,9.62 18.888,9.62 0,0 -10.983,-5.277 -16.361,-9.723 -4.301,-3.554 -8,-8.053 -10.724,-14.972 h 1.913 c 1.678,2.825 3.601,4.915 5.616,4.544 4.683,-0.863 9.415,0.075 14.989,5.235 4.719,4.367 10.716,14.64 17.544,18.422 M -128.015,14.46 c 0.526,1.539 2.366,3.853 0.34,8.688 -2.097,5.007 -5.105,7.433 -9.68,9.908 -6.171,3.339 -15.642,5.158 -17.173,5.133 4.706,-4.38 7.167,-12.88 10.348,-17.88 2.548,-4.004 6.752,-6.177 10.947,-7.28 1.416,-0.372 2.411,-1.206 3.158,-2.263 h 1.444 c -0.841,3.182 -2.351,7.075 -4.996,10.948 -4.223,6.184 -11.218,10.954 -11.218,10.954 0,0 8.731,-4.078 13.12,-10.369 2.102,-3.013 2.707,-5.194 3.71,-7.839"
         style="fill:#73c82c;fill-opacity:1;fill-rule:nonzero;stroke:none"
         transform="matrix(1.3333333,0,0,-1.3333333,716.936,101.47333)" />
    </g>
  </g>
</svg>
