<?xml version="1.0" encoding="UTF-8"?><svg id="Ebene_1" xmlns="http://www.w3.org/2000/svg" viewBox="0 0 808.14 153.18"><defs><style>.cls-1{fill:#86bc25;}.cls-1,.cls-2{stroke-width:0px;}.cls-2{fill:#007a31;}</style></defs><path class="cls-2" d="m364.71,28.17c-1.25-.75-6.42-3.25-12.5-3.25-8.09,0-11.25,1.75-11.25,4.25,0,1.67,2.59,2.84,5.67,4.09,5.58,2.33,16.08,5.34,16.08,12,0,.5-.09,1.08-.17,1.67-2,8.58-8.83,14.34-24.17,14.34-10.58,0-17.42-2.34-18.84-3.25l1.83-8.59c2.17,1.33,7.84,3.5,13.17,3.5,7.58,0,11.75-1.75,11.75-4.33,0-1.67-2.59-3.09-5.5-4.25-5.59-2.17-15.76-5-15.76-12.34,0-.58,0-1.25.17-1.92,1.83-8.34,10.33-13.5,23.42-13.5,10.34,0,17.01,2.67,17.92,3.25l-1.83,8.33Z"/><path class="cls-2" d="m400.3,26.34h-11.25l-4.25,20.17c-.16.67-.25,1.33-.25,1.92,0,2.83,1.75,4.17,5.33,4.17.67,0,4.5-.58,6.09-1.17l-1.92,8.83c-2,.42-8.09.92-11.08.92-9.5,0-14.5-3.17-14.5-9.17,0-.92.08-1.92.33-2.92l8.84-41.51h15.42l-2.17,10h11.34l-1.92,8.75Z"/><path class="cls-2" d="m446.23,57.68c-3.58,1.17-12.59,3.58-23.92,3.58-13.08,0-19.84-4.83-19.84-15.59,0-2.34.33-4.92.92-7.83,2.84-13.59,12.17-21.26,28.93-21.26,11.17,0,20.42,2.91,21.92,3.5l-8,37.59Zm-16-32.43c-2.84,0-5.17,1.08-6.92,3.25-2.92,3.58-4.92,11.42-4.92,16.59s1.83,7.59,5.92,7.59c3.42,0,7.08-.92,7.83-1.42l5.25-24.5c-.58-.42-3.41-1.5-7.17-1.5Z"/><path class="cls-2" d="m500.16,57.68c-3.58,1.17-12.59,3.58-23.92,3.58-13.01,0-19.84-4.75-19.84-15.59,0-2.34.25-4.92.92-7.83,3-13.92,11.75-21.26,23.5-21.26,5.91,0,11,1.5,12.17,2.25l4-18.84h15.42l-12.25,57.68Zm-16.01-32.43c-5.42,0-9.09,4.17-10.92,12.59-.58,2.83-.92,5.25-.92,7.25,0,5.09,1.83,7.59,5.92,7.59,3.42,0,7.09-.92,7.84-1.42l5.17-24.34c-.75-.42-4.09-1.67-7.09-1.67Z"/><path class="cls-2" d="m542.08,26.34h-11.25l-4.25,20.17c-.17.67-.25,1.33-.25,1.92,0,2.83,1.75,4.17,5.33,4.17.66,0,4.5-.58,6.08-1.17l-1.91,8.83c-2,.42-8.09.92-11.09.92-9.5,0-14.51-3.17-14.51-9.17,0-.92.09-1.92.33-2.92l8.84-41.51h15.42l-2.17,10h11.34l-1.92,8.75Z"/><path class="cls-2" d="m606.09,60.27h-18.92l-1.75-33.76-15.33,33.76h-18.92l-3.75-42.68h15.51l.75,32.76,15-32.76h18.09l2.17,32.76,13.75-32.76h15.34l-21.92,42.68Z"/><path class="cls-2" d="m639.52,42.43c-.16.83-.25,1.58-.25,2.34,0,5.25,3.34,8.34,11.75,8.34,5.08,0,12.59-2.42,14.25-3.75l-1.83,8.67c-1.83.92-9.16,3.25-20,3.25-13.5,0-19.09-5.33-19.09-15.67,0-18.26,12.34-29.01,29.42-29.01,12.25,0,18.51,4.58,18.51,10.33,0,.5-.09,1.08-.17,1.67-1.83,8.75-13.84,13.84-32.59,13.84Zm17.92-14.67c0-2.08-1.75-3.42-5.75-3.42-4.67,0-9,3.83-10.67,11,10.33,0,15.51-3.08,16.34-6.75.08-.25.08-.58.08-.83Z"/><path class="cls-2" d="m709.2,26.01c-.75-.25-3.84-.5-4.84-.5-3.08,0-8.16.84-9.92,1.5l-7.09,33.26h-15.42l8.59-40.26c2-.66,12.5-3.41,23.42-3.41,1.5,0,6.16.25,7.17.58l-1.92,8.84Z"/><path class="cls-2" d="m722.37,60.27h-15.42l12.83-60.27h15.42l-12.83,60.27Zm20.17-22.42l14,22.42h-18.59l-10.75-22.42,18.34-20.26h17.92l-20.92,20.26Z"/><path class="cls-2" d="m775.38,42.43c-.17.83-.25,1.58-.25,2.34,0,5.25,3.34,8.34,11.75,8.34,5.09,0,12.59-2.42,14.25-3.75l-1.83,8.67c-1.83.92-9.17,3.25-20,3.25-13.5,0-19.09-5.33-19.09-15.67,0-18.26,12.33-29.01,29.42-29.01,12.25,0,18.51,4.58,18.51,10.33,0,.5-.08,1.08-.17,1.67-1.83,8.75-13.84,13.84-32.59,13.84Zm17.92-14.67c0-2.08-1.75-3.42-5.75-3.42-4.66,0-9,3.83-10.67,11,10.34,0,15.51-3.08,16.34-6.75.08-.25.08-.58.08-.83Z"/><path class="cls-2" d="m342.04,82.83c-.33-.09-2.91-.84-4.33-.84-4.67,0-7.33,2-8.25,5.83l-1,4.33h11.17l-1.92,8.75h-11.09l-7.17,33.93h-15.42l10.34-48.76c1.75-8.34,8.83-12.51,21.17-12.51,3.75,0,7.84.67,8.34.75l-1.83,8.51Zm8.75,52.01h-15.34l12.75-60.27h15.42l-12.83,60.27Z"/><path class="cls-2" d="m376.63,117c-.16.84-.25,1.58-.25,2.34,0,5.25,3.34,8.33,11.75,8.33,5.09,0,12.59-2.42,14.25-3.75l-1.83,8.67c-1.83.92-9.17,3.25-20,3.25-13.51,0-19.09-5.33-19.09-15.67,0-18.25,12.34-29.01,29.42-29.01,12.25,0,18.51,4.59,18.51,10.33,0,.5-.09,1.09-.17,1.67-1.83,8.75-13.84,13.84-32.59,13.84Zm17.92-14.67c0-2.08-1.75-3.41-5.75-3.41-4.67,0-9,3.83-10.67,11,10.33,0,15.5-3.09,16.33-6.75.08-.25.08-.58.08-.83Z"/><path class="cls-2" d="m454.06,134.84h-15.42l5.34-25.25c.33-1.59.5-3,.5-4.17,0-3.67-1.75-5.34-5.42-5.34-2.92,0-6.42.83-7.5,1.33l-7.08,33.43h-15.42l8.5-40.18c2.59-1,12.84-3.5,23.84-3.5,11.67,0,19.26,3.67,19.26,11.17,0,.92-.17,1.83-.34,2.83l-6.25,29.68Z"/><path class="cls-2" d="m506.41,102.75c-1.25-.75-6.42-3.25-12.51-3.25-8.08,0-11.25,1.75-11.25,4.25,0,1.67,2.58,2.84,5.67,4.08,5.58,2.34,16.09,5.34,16.09,12,0,.5-.09,1.08-.17,1.67-2,8.59-8.84,14.34-24.17,14.34-10.58,0-17.42-2.33-18.84-3.25l1.83-8.58c2.17,1.33,7.83,3.5,13.17,3.5,7.59,0,11.76-1.75,11.76-4.33,0-1.67-2.59-3.09-5.5-4.25-5.59-2.17-15.76-5-15.76-12.34,0-.58,0-1.25.17-1.92,1.83-8.34,10.33-13.51,23.42-13.51,10.34,0,17,2.67,17.92,3.25l-1.83,8.34Z"/><path class="cls-2" d="m530.66,135.84c-9.67,0-19.09-2.17-21.92-3.58l12.25-57.68h15.42l-4.09,18.83c2-.83,8.17-2.25,13.25-2.25,8.92,0,15.09,5.67,15.09,15.34,0,1.83-.25,3.84-.66,5.92-3.42,16.84-12.09,23.42-29.34,23.42Zm14.09-29.25c0-4.58-2.17-6.75-6.17-6.75-3.42,0-7.25,1.5-7.92,1.75l-5.17,24.34c.42.33,3.67,1.33,7.17,1.33,5.83,0,9.25-4.08,11.42-14.83.42-2.25.67-4.25.67-5.84Z"/><path class="cls-2" d="m606.84,132.59c-2.5.75-12.92,3.25-23.59,3.25-12.09,0-19.01-4-19.01-11.25,0-.83.08-1.75.33-2.75l6.34-29.67h15.42l-5.08,23.76c-.5,2.08-.67,3.92-.67,5.34,0,3.84,1.25,5.75,5,5.75,3.34,0,6.59-1,7.25-1.25l7.17-33.6h15.42l-8.59,40.43Z"/><path class="cls-2" d="m651.94,100.59c-.75-.25-3.83-.5-4.83-.5-3.08,0-8.17.83-9.92,1.5l-7.09,33.26h-15.42l8.59-40.26c2-.67,12.5-3.42,23.42-3.42,1.5,0,6.17.25,7.17.58l-1.92,8.84Z"/><path class="cls-2" d="m693.03,134.76c-2.25,10.33-8.09,18.42-27.34,18.42-10.75,0-17.75-2.25-19.59-3.17l1.91-8.84c1.92,1.58,8.17,3.75,13.76,3.75,9.09,0,14.25-3.5,15.84-10.42l.58-2.59c-1.67,1-7.67,2.92-13.92,2.92-9.25,0-14.42-5.34-14.42-15.17,0-2.17.25-4.58.84-7.25,3-14,12.42-21.26,29.42-21.26,10.67,0,19.59,2.67,21.42,3.59l-8.5,40.01Zm-15.42-34.93c-2.75,0-5.17,1.08-6.92,3.16-2.67,3.09-4.83,10.17-4.83,15.59,0,5.09,2.08,7.58,6.08,7.58,3.17,0,7.09-1.25,7.84-1.75l5-23.34c-.67-.34-3.33-1.25-7.17-1.25Z"/><path class="cls-1" d="m306.22,17.65c.16-.76-.34-1.38-1.12-1.38h-90.33c-.78,0-1.55.62-1.71,1.38l-5.35,25.21c-.16.76.34,1.38,1.12,1.38h90.32c.78,0,1.55-.62,1.71-1.38l5.35-25.21Z"/><path class="cls-1" d="m296.51,62.72c.16-.76-.34-1.38-1.12-1.38H112.29c-.78,0-1.55.62-1.71,1.38l-5.36,25.21c-.16.76.34,1.38,1.12,1.38h183.1c.78,0,1.55-.62,1.71-1.38l5.37-25.21Z"/><path class="cls-1" d="m287.01,107.79c.16-.76-.34-1.38-1.12-1.38H7.18c-.78,0-1.55.62-1.71,1.38L.03,133c-.16.76.34,1.38,1.12,1.38h278.73c.78,0,1.55-.62,1.71-1.38l5.42-25.21Z"/></svg>